<svg xmlns="http://www.w3.org/2000/svg" version="1.1" xmlns:xlink="http://www.w3.org/1999/xlink" xmlns:svgjs="http://svgjs.dev/svgjs" width="1000" height="623" viewBox="0 0 1000 623"><g transform="matrix(1,0,0,1,-0.6060606060606233,0.2522267206477409)"><svg viewBox="0 0 396 247" data-background-color="#ffffff" preserveAspectRatio="xMidYMid meet" height="623" width="1000" xmlns="http://www.w3.org/2000/svg" xmlns:xlink="http://www.w3.org/1999/xlink"><g id="tight-bounds" transform="matrix(1,0,0,1,0.2400000000000091,-0.09999999999999432)"><svg viewBox="0 0 395.52 247.2" height="247.2" width="395.52"><rect width="395.5199890136719" height="247.1999969482422" fill="url(#5f123ce6-c9e9-4b0b-9bba-b48e393835f5)" mask="url(#a5b988dc-03dd-4ca9-8fb5-78074e2edcfe)" data-fill-palette-color="tertiary"></rect><g><svg></svg></g><g><svg viewBox="0 0 395.52 247.2" height="247.2" width="395.52"><mask id="9b88dbdd-fc56-4246-9303-3c1883e005c6"><rect width="395.52" height="247.2" fill="white"></rect><g transform="matrix(1,0,0,1,45.3516923076923,37.08)" id="clone"><svg viewBox="0 0 304.8166153846154 173.04" height="173.04" width="304.8166153846154"><g><svg viewBox="0 0 304.8166153846154 173.04" height="173.04" width="304.8166153846154"><g><svg viewBox="0 0 304.8166153846154 173.04" height="173.04" width="304.8166153846154"><g><svg viewBox="0 0 304.8166153846154 173.04" height="173.04" width="304.8166153846154"><g id="SvgjsG1962"><svg viewBox="0 0 304.8166153846154 173.04" height="173.04" width="304.8166153846154" id="SvgjsSvg1961"><g><svg viewBox="0 0 304.8166153846154 173.04" height="173.04" width="304.8166153846154"><g transform="matrix(1,0,0,1,0,0)"><svg width="304.8166153846154" viewBox="1.9000000953674316 -36.5 69.69999694824219 40" height="173.04" data-palette-color="url(#36ac1f09-05b7-44bb-8f56-c3f076ffd324)"><path d="M27.5-33L31.3-33 31.3 0 26.35 0 12.55-22.1 9.05-28.3 9-28.3 9.2-23.3 9.2 0 5.4 0 5.4-33 10.35-33 24.1-11 27.65-4.65 27.7-4.65 27.5-9.7 27.5-33ZM62.7-33L67.95-33 53.55-18.25 52.95-17.6 44.1-8.55 44.1-13.95 62.7-33ZM42.1-33L46.1-33 46.1 0 42.1 0 42.1-33ZM50.65-18.55L53.95-20.8 68.1 0 63.3 0 50.65-18.55Z" opacity="1" transform="matrix(1,0,0,1,0,0)" fill="black" class="wordmark-text-0" id="SvgjsPath1960" stroke-width="6" stroke="black" stroke-linejoin="round"></path></svg></g></svg></g></svg></g></svg></g><g></g></svg></g></svg></g></svg></g></mask><g mask="url(#9b88dbdd-fc56-4246-9303-3c1883e005c6)"><g><path xmlns="http://www.w3.org/2000/svg" d="M266.302 0h28.465v247.2h-37.08l-103.374-165.549-26.218-46.444h-0.375l1.498 37.455v174.538h-28.465v-247.2h37.08l103 164.8 26.592 47.567h0.375l-1.498-37.829z" fill="url(#5f123ce6-c9e9-4b0b-9bba-b48e393835f5)" fill-rule="nonzero" stroke="none" stroke-width="1" stroke-linecap="butt" stroke-linejoin="miter" stroke-miterlimit="10" stroke-dasharray="" stroke-dashoffset="0" font-family="none" font-weight="none" font-size="none" text-anchor="none" style="mix-blend-mode: normal" data-fill-palette-color="tertiary"></path></g></g><g transform="matrix(1,0,0,1,45.3516923076923,37.08)"><svg viewBox="0 0 304.8166153846154 173.04" height="173.04" width="304.8166153846154"><g><svg viewBox="0 0 304.8166153846154 173.04" height="173.04" width="304.8166153846154"><g><svg viewBox="0 0 304.8166153846154 173.04" height="173.04" width="304.8166153846154"><g><svg viewBox="0 0 304.8166153846154 173.04" height="173.04" width="304.8166153846154"><g id="textblocktransform"><svg viewBox="0 0 304.8166153846154 173.04" height="173.04" width="304.8166153846154" id="textblock"><g><svg viewBox="0 0 304.8166153846154 173.04" height="173.04" width="304.8166153846154"><g transform="matrix(1,0,0,1,0,0)"><svg width="304.8166153846154" viewBox="1.9000000953674316 -36.5 69.69999694824219 40" height="173.04" data-palette-color="url(#36ac1f09-05b7-44bb-8f56-c3f076ffd324)"></svg></g></svg></g></svg></g></svg></g><g></g></svg></g></svg></g></svg></g></svg></g><defs></defs><mask id="a5652e29-161d-4ed0-8ce2-5cb9b0b82cdf"><g id="SvgjsG1972"><svg viewBox="0 0 395.52 247.2" height="247.2" width="395.52"><g><svg></svg></g><g><svg viewBox="0 0 395.52 247.2" height="247.2" width="395.52"><mask id="SvgjsMask1971"><g transform="matrix(1,0,0,1,45.3516923076923,37.08)" id="SvgjsG1970"><svg viewBox="0 0 304.8166153846154 173.04" height="173.04" width="304.8166153846154"><g><svg viewBox="0 0 304.8166153846154 173.04" height="173.04" width="304.8166153846154"><g><svg viewBox="0 0 304.8166153846154 173.04" height="173.04" width="304.8166153846154"><g><svg viewBox="0 0 304.8166153846154 173.04" height="173.04" width="304.8166153846154"><g id="SvgjsG1969"><svg viewBox="0 0 304.8166153846154 173.04" height="173.04" width="304.8166153846154" id="SvgjsSvg1968"><g><svg viewBox="0 0 304.8166153846154 173.04" height="173.04" width="304.8166153846154"><g transform="matrix(1,0,0,1,0,0)"><svg width="304.8166153846154" viewBox="1.9000000953674316 -36.5 69.69999694824219 40" height="173.04" data-palette-color="url(#36ac1f09-05b7-44bb-8f56-c3f076ffd324)"></svg></g></svg></g></svg></g></svg></g><g></g></svg></g></svg></g></svg></g></mask><g mask="url(#9b88dbdd-fc56-4246-9303-3c1883e005c6)"><g></g></g><g transform="matrix(1,0,0,1,45.3516923076923,37.08)"><svg viewBox="0 0 304.8166153846154 173.04" height="173.04" width="304.8166153846154"><g><svg viewBox="0 0 304.8166153846154 173.04" height="173.04" width="304.8166153846154"><g><svg viewBox="0 0 304.8166153846154 173.04" height="173.04" width="304.8166153846154"><g><svg viewBox="0 0 304.8166153846154 173.04" height="173.04" width="304.8166153846154"><g id="SvgjsG1966"><svg viewBox="0 0 304.8166153846154 173.04" height="173.04" width="304.8166153846154" id="SvgjsSvg1965"><g><svg viewBox="0 0 304.8166153846154 173.04" height="173.04" width="304.8166153846154"><g transform="matrix(1,0,0,1,0,0)"><svg width="304.8166153846154" viewBox="1.9000000953674316 -36.5 69.69999694824219 40" height="173.04" data-palette-color="url(#36ac1f09-05b7-44bb-8f56-c3f076ffd324)"><path d="M27.5-33L31.3-33 31.3 0 26.35 0 12.55-22.1 9.05-28.3 9-28.3 9.2-23.3 9.2 0 5.4 0 5.4-33 10.35-33 24.1-11 27.65-4.65 27.7-4.65 27.5-9.7 27.5-33ZM62.7-33L67.95-33 53.55-18.25 52.95-17.6 44.1-8.55 44.1-13.95 62.7-33ZM42.1-33L46.1-33 46.1 0 42.1 0 42.1-33ZM50.65-18.55L53.95-20.8 68.1 0 63.3 0 50.65-18.55Z" opacity="1" transform="matrix(1,0,0,1,0,0)" fill="white" class="wordmark-text-0" id="SvgjsPath1964"></path></svg></g></svg></g></svg></g></svg></g><g></g></svg></g></svg></g></svg></g></svg></g><defs></defs></svg></g></mask><linearGradient x1="0.054" x2="0.941" y1="0.5" y2="0.5" id="36ac1f09-05b7-44bb-8f56-c3f076ffd324"><stop stop-color="#0f3054" offset="0"></stop><stop stop-color="#3b8dcb" offset="0.498"></stop><stop stop-color="#0f3054" offset="1"></stop></linearGradient><rect width="395.5199890136719" height="247.1999969482422" fill="url(#36ac1f09-05b7-44bb-8f56-c3f076ffd324)" mask="url(#a5652e29-161d-4ed0-8ce2-5cb9b0b82cdf)" data-fill-palette-color="primary"></rect><mask id="a5b988dc-03dd-4ca9-8fb5-78074e2edcfe"><g id="SvgjsG1988"><svg viewBox="0 0 395.52 247.2" height="247.2" width="395.52"><g><svg></svg></g><g><svg viewBox="0 0 395.52 247.2" height="247.2" width="395.52"><mask id="SvgjsMask1987"><g transform="matrix(1,0,0,1,45.3516923076923,37.08)" id="SvgjsG1986"><svg viewBox="0 0 304.8166153846154 173.04" height="173.04" width="304.8166153846154"><g><svg viewBox="0 0 304.8166153846154 173.04" height="173.04" width="304.8166153846154"><g><svg viewBox="0 0 304.8166153846154 173.04" height="173.04" width="304.8166153846154"><g><svg viewBox="0 0 304.8166153846154 173.04" height="173.04" width="304.8166153846154"><g id="SvgjsG1985"><svg viewBox="0 0 304.8166153846154 173.04" height="173.04" width="304.8166153846154" id="SvgjsSvg1984"><g><svg viewBox="0 0 304.8166153846154 173.04" height="173.04" width="304.8166153846154"><g transform="matrix(1,0,0,1,0,0)"><svg width="304.8166153846154" viewBox="1.9000000953674316 -36.5 69.69999694824219 40" height="173.04" data-palette-color="url(#36ac1f09-05b7-44bb-8f56-c3f076ffd324)"></svg></g></svg></g></svg></g></svg></g><g></g></svg></g></svg></g></svg></g></mask><g mask="url(#9b88dbdd-fc56-4246-9303-3c1883e005c6)"><g><path xmlns="http://www.w3.org/2000/svg" d="M266.302 0h28.465v247.2h-37.08l-103.374-165.549-26.218-46.444h-0.375l1.498 37.455v174.538h-28.465v-247.2h37.08l103 164.8 26.592 47.567h0.375l-1.498-37.829z" fill="white" fill-rule="nonzero" stroke="none" stroke-width="1" stroke-linecap="butt" stroke-linejoin="miter" stroke-miterlimit="10" stroke-dasharray="" stroke-dashoffset="0" font-family="none" font-weight="none" font-size="none" text-anchor="none" style="mix-blend-mode: normal"></path></g></g><g transform="matrix(1,0,0,1,45.3516923076923,37.08)"><svg viewBox="0 0 304.8166153846154 173.04" height="173.04" width="304.8166153846154"><g><svg viewBox="0 0 304.8166153846154 173.04" height="173.04" width="304.8166153846154"><g><svg viewBox="0 0 304.8166153846154 173.04" height="173.04" width="304.8166153846154"><g><svg viewBox="0 0 304.8166153846154 173.04" height="173.04" width="304.8166153846154"><g id="SvgjsG1982"><svg viewBox="0 0 304.8166153846154 173.04" height="173.04" width="304.8166153846154" id="SvgjsSvg1981"><g><svg viewBox="0 0 304.8166153846154 173.04" height="173.04" width="304.8166153846154"><g transform="matrix(1,0,0,1,0,0)"><svg width="304.8166153846154" viewBox="1.9000000953674316 -36.5 69.69999694824219 40" height="173.04" data-palette-color="url(#36ac1f09-05b7-44bb-8f56-c3f076ffd324)"></svg></g></svg></g></svg></g></svg></g><g></g></svg></g></svg></g></svg></g></svg></g><defs></defs><mask><g id="SvgjsG1980"><svg viewBox="0 0 395.52 247.2" height="247.2" width="395.52"><g><svg></svg></g><g><svg viewBox="0 0 395.52 247.2" height="247.2" width="395.52"><mask id="SvgjsMask1979"><g transform="matrix(1,0,0,1,45.3516923076923,37.08)" id="SvgjsG1978"><svg viewBox="0 0 304.8166153846154 173.04" height="173.04" width="304.8166153846154"><g><svg viewBox="0 0 304.8166153846154 173.04" height="173.04" width="304.8166153846154"><g><svg viewBox="0 0 304.8166153846154 173.04" height="173.04" width="304.8166153846154"><g><svg viewBox="0 0 304.8166153846154 173.04" height="173.04" width="304.8166153846154"><g id="SvgjsG1977"><svg viewBox="0 0 304.8166153846154 173.04" height="173.04" width="304.8166153846154" id="SvgjsSvg1976"><g><svg viewBox="0 0 304.8166153846154 173.04" height="173.04" width="304.8166153846154"><g transform="matrix(1,0,0,1,0,0)"><svg width="304.8166153846154" viewBox="1.9000000953674316 -36.5 69.69999694824219 40" height="173.04" data-palette-color="url(#36ac1f09-05b7-44bb-8f56-c3f076ffd324)"></svg></g></svg></g></svg></g></svg></g><g></g></svg></g></svg></g></svg></g></mask><g mask="url(#9b88dbdd-fc56-4246-9303-3c1883e005c6)"><g></g></g><g transform="matrix(1,0,0,1,45.3516923076923,37.08)"><svg viewBox="0 0 304.8166153846154 173.04" height="173.04" width="304.8166153846154"><g><svg viewBox="0 0 304.8166153846154 173.04" height="173.04" width="304.8166153846154"><g><svg viewBox="0 0 304.8166153846154 173.04" height="173.04" width="304.8166153846154"><g><svg viewBox="0 0 304.8166153846154 173.04" height="173.04" width="304.8166153846154"><g id="SvgjsG1975"><svg viewBox="0 0 304.8166153846154 173.04" height="173.04" width="304.8166153846154" id="SvgjsSvg1974"><g><svg viewBox="0 0 304.8166153846154 173.04" height="173.04" width="304.8166153846154"><g transform="matrix(1,0,0,1,0,0)"><svg width="304.8166153846154" viewBox="1.9000000953674316 -36.5 69.69999694824219 40" height="173.04" data-palette-color="url(#36ac1f09-05b7-44bb-8f56-c3f076ffd324)"></svg></g></svg></g></svg></g></svg></g><g></g></svg></g></svg></g></svg></g></svg></g><defs></defs></svg></g></mask></svg></g></mask><linearGradient x1="0.054" x2="0.941" y1="0.5" y2="0.5" id="5f123ce6-c9e9-4b0b-9bba-b48e393835f5"><stop stop-color="#0f3054" offset="0"></stop><stop stop-color="#3b8dcb" offset="0.498"></stop><stop stop-color="#0f3054" offset="1"></stop></linearGradient></svg><rect width="395.52" height="247.2" fill="none" stroke="none" visibility="hidden"></rect></g></svg></g></svg>